<svg width="64" height="64" viewBox="0 0 64 64" fill="none" xmlns="http://www.w3.org/2000/svg">
  <defs>
    <linearGradient id="logoGradient" x1="0%" y1="0%" x2="100%" y2="100%">
      <stop offset="0%" style="stop-color:#10B981;stop-opacity:1" />
      <stop offset="50%" style="stop-color:#3B82F6;stop-opacity:1" />
      <stop offset="100%" style="stop-color:#F59E0B;stop-opacity:1" />
    </linearGradient>
    <linearGradient id="swapGradient" x1="0%" y1="0%" x2="100%" y2="100%">
      <stop offset="0%" style="stop-color:#EF4444;stop-opacity:1" />
      <stop offset="100%" style="stop-color:#8B5CF6;stop-opacity:1" />
    </linearGradient>
  </defs>
  
  <!-- Background circle -->
  <circle cx="32" cy="32" r="30" fill="url(#logoGradient)" stroke="rgba(255,255,255,0.1)" stroke-width="2"/>
  
  <!-- Flow "F" letter -->
  <path d="M20 16h16v4h-12v8h10v4h-10v12h-4V16z" fill="white" opacity="0.9"/>
  
  <!-- Swap arrows -->
  <g transform="translate(36, 36)">
    <!-- Arrow 1 -->
    <path d="M-4 -4 L4 -4 L4 -8 L12 0 L4 8 L4 4 L-4 4 Z" fill="url(#swapGradient)" opacity="0.8"/>
    <!-- Arrow 2 -->
    <path d="M4 4 L-4 4 L-4 8 L-12 0 L-4 -8 L-4 -4 L4 -4 Z" fill="url(#swapGradient)" opacity="0.8"/>
  </g>
  
  <!-- Decorative dots -->
  <circle cx="16" cy="48" r="2" fill="white" opacity="0.6"/>
  <circle cx="48" cy="16" r="2" fill="white" opacity="0.6"/>
</svg>
